<svg preserveAspectRatio="none" width="100%" height="100%" overflow="visible" style="display: block;" viewBox="0 0 14.403 13.809" fill="none" xmlns="http://www.w3.org/2000/svg">
<path id="Vector" d="M6.952 0L7.177 0.691002H7.903L7.315 1.118L7.54 1.809L6.952 1.382L6.364 1.809L6.589 1.118L6.001 0.691002H6.727L6.952 0ZM3.952 1L4.177 1.691H4.903L4.315 2.118L4.54 2.809L3.952 2.382L3.364 2.809L3.589 2.118L3.001 1.691H3.727L3.952 1ZM1.952 3L2.177 3.691H2.902L2.314 4.118L2.539 4.809L1.951 4.382L1.363 4.809L1.588 4.118L1 3.691H1.726L1.952 3ZM0.952 6L1.177 6.691H1.902L1.314 7.118L1.539 7.809L0.951 7.382L0.363 7.809L0.588 7.118L0 6.691H0.726L0.952 6ZM1.952 9L2.177 9.691H2.902L2.314 10.118L2.539 10.809L1.951 10.382L1.363 10.809L1.588 10.118L1 9.691H1.726L1.952 9ZM3.952 11L4.177 11.691H4.903L4.315 12.118L4.54 12.809L3.952 12.382L3.364 12.809L3.589 12.118L3.001 11.691H3.727L3.952 11ZM6.952 12L7.177 12.691H7.903L7.315 13.118L7.54 13.809L6.952 13.382L6.364 13.809L6.589 13.118L6.001 12.691H6.727L6.952 12ZM9.952 11L10.176 11.691H10.903L10.315 12.118L10.54 12.809L9.952 12.382L9.364 12.809L9.589 12.118L9.001 11.691H9.728L9.952 11ZM12.452 9L12.676 9.691H13.403L12.815 10.118L13.04 10.809L12.452 10.382L11.864 10.809L12.089 10.118L11.501 9.691H12.228L12.452 9ZM13.452 6L13.676 6.691H14.403L13.815 7.118L14.04 7.809L13.452 7.382L12.864 7.809L13.089 7.118L12.501 6.691H13.228L13.452 6ZM12.452 3L12.676 3.691H13.403L12.815 4.118L13.04 4.809L12.452 4.382L11.864 4.809L12.089 4.118L11.501 3.691H12.228L12.452 3ZM9.952 1L10.176 1.691H10.903L10.315 2.118L10.54 2.809L9.952 2.382L9.364 2.809L9.589 2.118L9.001 1.691H9.728L9.952 1Z" fill="var(--fill-0, #FFCB00)"/>
</svg>
