<svg preserveAspectRatio="none" width="100%" height="100%" overflow="visible" style="display: block;" viewBox="0 0 13.617 8.806" fill="none" xmlns="http://www.w3.org/2000/svg">
<path id="Vector" d="M4.02 1.511C3.672 1.511 3.363 1.58 3.094 1.716C2.828 1.849 2.604 2.043 2.42 2.296C2.24 2.55 2.104 2.857 2.01 3.216C1.916 3.576 1.87 3.98 1.87 4.429C1.87 5.035 1.944 5.552 2.092 5.982C2.244 6.408 2.479 6.734 2.795 6.961C3.112 7.183 3.52 7.295 4.02 7.295C4.368 7.295 4.715 7.255 5.063 7.177C5.414 7.099 5.795 6.987 6.205 6.843V8.367C5.8449 8.51771 5.46979 8.62967 5.086 8.701C4.719 8.771 4.306 8.806 3.85 8.806C2.967 8.806 2.24 8.625 1.67 8.261C1.10165 7.89163 0.661519 7.35544 0.41 6.726C0.137 6.066 0 5.296 0 4.418C0 3.769 0.0879999 3.175 0.264 2.636C0.425904 2.12253 0.688709 1.64656 1.037 1.236C1.377 0.841 1.797 0.536001 2.297 0.322001C2.797 0.107 3.371 0 4.02 0C4.446 0 4.871 0.0540005 5.297 0.164001C5.727 0.269001 6.137 0.416 6.527 0.604L5.942 2.08C5.62707 1.92973 5.30427 1.79653 4.975 1.681C4.66855 1.57082 4.34565 1.51334 4.02 1.511ZM13.617 8.689H7.243V7.511L11.35 1.623H7.353V0.123H13.505V1.294L9.405 7.189H13.617V8.689Z" fill="var(--fill-0, white)"/>
</svg>
