<svg preserveAspectRatio="none" width="100%" height="100%" overflow="visible" style="display: block;" viewBox="0 0 150 40.5" fill="none" xmlns="http://www.w3.org/2000/svg">
<g id="Forbes_logo 1">
<path id="Vector" d="M84.975 13.65C84.975 9.3 85.05 5.25 85.275 1.5L73.8 3.675V4.725L74.925 4.875C75.75 4.95 76.275 5.25 76.575 5.7C76.875 6.225 77.1 6.975 77.25 8.1C77.4 10.275 77.55 15.225 77.475 23.025C77.475 30.75 77.4 35.625 77.25 37.5C81.375 38.4 84.6 38.775 87 38.775C91.5 38.775 95.025 37.5 97.575 34.875C100.125 32.325 101.475 28.725 101.475 24.3C101.475 20.775 100.5 17.85 98.55 15.525C96.6 13.2 94.125 12.075 91.2 12.075C89.25 12.075 87.225 12.6 84.975 13.65ZM85.2 36.75C85.05 34.35 84.9 27.15 84.9 15.375C85.575 15.15 86.475 15 87.6 15C89.4 15 90.825 15.9 91.875 17.775C92.925 19.65 93.45 21.9 93.45 24.75C93.45 28.275 92.85 31.125 91.65 33.525C90.45 35.85 88.95 37.05 87.075 37.05C86.475 36.9 85.875 36.825 85.2 36.75ZM30.75 2.25H0.75V3.75L2.325 3.9C3.525 4.125 4.35 4.575 4.875 5.25C5.4 6 5.7 7.2 5.775 8.85C6.375 16.95 6.375 24.525 5.775 31.5C5.625 33.15 5.325 34.35 4.875 35.1C4.35 35.85 3.525 36.3 2.325 36.45L0.75 36.675V38.175H20.1V36.675L18.075 36.525C17.5809 36.4837 17.1002 36.3427 16.662 36.1107C16.2237 35.8787 15.837 35.5604 15.525 35.175C15 34.425 14.7 33.225 14.625 31.575C14.4 28.575 14.25 25.125 14.25 21.3L18.3 21.375C20.475 21.45 21.975 23.1 22.725 26.4H24.225V14.175H22.725C21.975 17.4 20.55 19.05 18.3 19.125L14.25 19.2C14.25 12.45 14.4 7.65 14.625 4.725H20.55C24.75 4.725 27.6 7.425 29.25 12.825L31.05 12.3L30.75 2.25ZM27.225 25.35C27.225 29.25 28.35 32.475 30.525 35.025C32.7 37.575 35.925 38.775 39.975 38.775C44.025 38.775 47.325 37.5 49.725 34.875C52.125 32.325 53.25 29.1 53.25 25.2C53.25 21.3 52.125 18.075 49.95 15.525C47.775 12.975 44.55 11.775 40.5 11.775C36.45 11.775 33.15 13.05 30.75 15.675C28.35 18.225 27.225 21.45 27.225 25.35ZM43.95 16.8C44.85 18.975 45.225 21.825 45.225 25.275C45.225 33.225 43.575 37.125 40.35 37.125C38.7 37.125 37.425 36 36.525 33.75C35.625 31.5 35.25 28.65 35.25 25.275C35.25 17.4 36.9 13.5 40.125 13.5C41.775 13.425 43.05 14.55 43.95 16.8ZM107.325 35.025C109.8 37.5 112.95 38.775 116.7 38.775C119.025 38.775 121.05 38.325 122.85 37.35C124.65 36.45 126.075 35.325 127.05 33.975L126.3 33.075C124.65 34.35 122.775 34.95 120.6 34.95C117.6 34.95 115.275 33.975 113.7 31.95C112.05 29.925 111.3 27.375 111.45 24.075H127.5C127.5 20.475 126.6 17.55 124.725 15.225C122.85 12.975 120.225 11.85 116.85 11.85C112.65 11.85 109.425 13.2 107.1 15.825C104.775 18.45 103.65 21.675 103.65 25.5C103.65 29.4 104.85 32.55 107.325 35.025ZM112.875 16.2C113.7 14.4 114.75 13.5 116.175 13.5C118.425 13.5 119.55 16.35 119.55 22.125L111.6 22.275C111.675 20.025 112.05 18 112.875 16.2ZM147.675 13.2C145.65 12.3 143.1 11.775 140.025 11.775C136.875 11.775 134.4 12.6 132.525 14.175C130.65 15.75 129.675 17.7 129.675 20.025C129.675 22.05 130.275 23.625 131.4 24.75C132.525 25.875 134.325 26.85 136.65 27.675C138.75 28.425 140.25 29.175 141 29.85C141.75 30.6 142.2 31.425 142.2 32.55C142.2 33.6 141.825 34.575 141 35.325C140.25 36.15 139.2 36.525 137.85 36.525C134.55 36.525 132.075 34.125 130.35 29.325L129.075 29.7L129.375 37.2C132.075 38.25 135.075 38.775 138.375 38.775C141.825 38.775 144.45 38.025 146.4 36.45C148.35 34.95 149.325 32.775 149.325 30.075C149.325 28.275 148.875 26.775 147.9 25.65C146.925 24.525 145.35 23.55 143.1 22.65C140.625 21.75 138.9 20.925 138 20.175C137.1 19.425 136.65 18.525 136.65 17.4C136.65 16.275 136.95 15.375 137.625 14.625C138.3 13.875 139.125 13.575 140.175 13.575C143.175 13.575 145.35 15.75 146.7 20.025L147.975 19.65L147.675 13.2ZM75.525 12.525C74.475 12 73.35 11.775 72.075 11.775C70.8 11.775 69.525 12.3 68.1 13.35C66.675 14.4 65.625 15.825 64.8 17.775L64.875 11.775L53.475 14.025V15.075L54.6 15.15C56.025 15.3 56.85 16.425 57 18.45C57.45 23.1 57.45 28.05 57 33.3C56.85 35.325 56.025 36.375 54.6 36.6L53.475 36.75V38.175H69.375V36.75L67.35 36.6C65.925 36.45 65.1 35.325 64.95 33.3C64.5 28.95 64.425 24.3 64.8 19.5C65.25 18.75 66.225 18.3 67.725 18.15C69.225 18 70.95 18.45 72.75 19.5L75.525 12.525Z" fill="var(--fill-0, white)"/>
</g>
</svg>
