<svg preserveAspectRatio="none" width="100%" height="100%" overflow="visible" style="display: block;" viewBox="0 0 62.069 62.069" fill="none" xmlns="http://www.w3.org/2000/svg">
<g id="globe-americas 1" clip-path="url(#clip0_2015_1541)">
<path id="Vector" d="M31.0345 0C22.8036 0 14.9099 3.2697 9.08979 9.08979C3.2697 14.9099 0 22.8036 0 31.0345C0 39.2653 3.2697 47.1591 9.08979 52.9792C14.9099 58.7993 22.8036 62.069 31.0345 62.069C39.2653 62.069 47.1591 58.7993 52.9792 52.9792C58.7993 47.1591 62.069 39.2653 62.069 31.0345C62.069 22.8036 58.7993 14.9099 52.9792 9.08979C47.1591 3.2697 39.2653 0 31.0345 0ZM7.91379 16.7819C9.17457 21.9375 17.7362 26.6353 22.3332 29.1569C24.1953 30.1772 25.4095 30.8405 25.2155 31.0345C24.9026 31.3448 24.5897 31.6474 24.2767 31.9422C22.6629 33.4784 21.2237 34.8478 21.3362 36.8534C21.472 39.3129 23.7336 40.05 26.0457 40.7987C28.2841 41.528 30.5767 42.2728 31.0345 44.6121C31.3526 46.2297 30.7435 48.4448 30.181 50.5086C29.347 53.5422 28.606 56.25 31.0345 56.25C36.8534 54.3103 45.7681 43.8905 46.5517 36.8534C47.0871 32.0315 38.7931 29.0948 32.9741 27.1552C31.1198 26.5345 30.0453 27.4694 29.1336 28.2569C28.4664 28.8388 27.8845 29.3392 27.1552 29.0948C25.4289 28.5207 17.4569 21.3362 21.3362 19.3966C24.3621 17.8836 25.0293 18.7332 26.0961 20.1026C26.3987 20.4866 26.7284 20.9095 27.1552 21.3362C29.5177 22.5155 29.7233 20.8241 29.9599 18.8806C30.1112 17.6315 30.2741 16.2776 31.0345 15.5172C32.7181 13.8336 35.9418 12.4487 38.9017 11.1724C41.6638 9.98535 44.197 8.89526 45.0272 7.75862C49.6405 10.5328 53.3253 14.6156 55.6133 19.4885C57.9014 24.3613 58.6895 29.8042 57.8776 35.1259C57.0656 40.4476 54.6903 45.4079 51.0533 49.3767C47.4163 53.3455 42.6817 56.1438 37.4509 57.4161C32.2202 58.6884 26.7293 58.3773 21.6757 56.5223C16.6221 54.6673 12.2339 51.3521 9.06852 46.9978C5.90309 42.6436 4.10327 37.4467 3.89767 32.0674C3.69206 26.688 5.08996 21.3651 7.91379 16.7819Z" fill="var(--fill-0, #3F2578)"/>
</g>
<defs>
<clipPath id="clip0_2015_1541">
<rect width="62.069" height="62.069" fill="white"/>
</clipPath>
</defs>
</svg>
