<svg preserveAspectRatio="none" width="100%" height="100%" overflow="visible" style="display: block;" viewBox="0 0 70 70" fill="none" xmlns="http://www.w3.org/2000/svg">
<g id="globe-europe-africa 1" clip-path="url(#clip0_2015_1574)">
<path id="Vector" d="M35 0C25.7174 0 16.815 3.68749 10.2513 10.2513C3.68749 16.815 0 25.7174 0 35C0 44.2826 3.68749 53.185 10.2513 59.7487C16.815 66.3125 25.7174 70 35 70C44.2826 70 53.185 66.3125 59.7487 59.7487C66.3125 53.185 70 44.2826 70 35C70 25.7174 66.3125 16.815 59.7487 10.2513C53.185 3.68749 44.2826 0 35 0ZM16.0475 10.9419L14.7875 13.7681C14.4037 14.6175 14.354 15.5802 14.6484 16.4646C14.9428 17.3489 15.5596 18.0898 16.3759 18.5396C17.1922 18.9894 18.148 19.1151 19.0529 18.8916C19.9577 18.6681 20.7451 18.1119 21.2581 17.3337L22.33 15.7238C22.8089 15.0076 23.5323 14.4904 24.365 14.269C25.1976 14.0475 26.0823 14.137 26.8538 14.5206C27.3455 14.7663 27.8878 14.8942 28.4375 14.8942C28.9872 14.8942 29.5295 14.7663 30.0212 14.5206L31.1631 13.9519C31.6851 13.6911 32.254 13.5375 32.8363 13.4999C33.4186 13.4623 34.0026 13.5416 34.5537 13.7331L38.8587 15.2206C39.2029 15.3373 39.5573 15.416 39.9219 15.4569C43.3519 15.8637 43.6625 17.1063 42.9581 18.9613C42.28 20.755 40.2631 21.6606 38.43 21.0919L38.3863 21.0787C36.1988 20.4006 33.8975 19.6875 26.25 19.6875C21 19.6875 15.3125 24.5875 15.3125 30.625C15.3125 39.2 18.9263 40.1012 22.7325 41.0462C24.745 41.5494 26.8231 42.0656 28.4375 43.75C30.4019 45.7931 30.1569 48.9169 29.9206 51.9619C29.5531 56.7 29.1988 61.25 37.1875 61.25C44.8438 61.25 50.3125 45.9375 50.3125 41.5625C50.3125 40.4163 51.2225 39.515 52.255 38.5C53.9875 36.785 56.0613 34.7375 54.6875 30.625C54.2631 29.3519 52.955 28.14 51.8831 27.3175C51.1219 26.7356 50.9775 25.585 51.6556 24.9069C51.8922 24.6664 52.2055 24.5164 52.5412 24.4828C52.8768 24.4492 53.2136 24.5343 53.4931 24.7231L58.24 27.8906C58.7213 28.2056 59.3556 28.1444 59.7625 27.7375C60.4187 27.0813 61.5781 27.3744 61.9019 28.2494C62.6019 30.1306 63.8488 32.8431 65.6163 34.1863L65.625 35C65.6246 40.1893 64.3057 45.2934 61.7919 49.8332C59.2781 54.373 55.6519 58.1996 51.2538 60.9537C46.8557 63.7079 41.8299 65.2993 36.6481 65.5785C31.4663 65.8578 26.2985 64.8158 21.6299 62.5502C16.9612 60.2847 12.9448 56.87 9.95769 52.6267C6.97056 48.3834 5.11067 43.4506 4.5526 38.2914C3.99454 33.1322 4.75662 27.9157 6.76729 23.1318C8.77796 18.3479 11.9713 14.1533 16.0475 10.9419Z" fill="var(--fill-0, #3F2578)"/>
</g>
<defs>
<clipPath id="clip0_2015_1574">
<rect width="70" height="70" fill="white"/>
</clipPath>
</defs>
</svg>
