<svg width="70" height="70" viewBox="0 0 70 70" fill="none" xmlns="http://www.w3.org/2000/svg">
  <path d="M35 0C15.67 0 0 15.67 0 35s15.67 35 35 35 35-15.67 35-35S54.33 0 35 0z" stroke="#3f2578" stroke-width="2" stroke-linecap="round" stroke-linejoin="round"/>
  <path d="M35 0v70M0 35h70" stroke="#3f2578" stroke-width="1.5" stroke-linecap="round"/>
  <path d="M35 0c9.5 4.5 16 14 16 35s-6.5 30.5-16 35c-9.5-4.5-16-14-16-35S25.5 4.5 35 0z" stroke="#3f2578" stroke-width="1.5" stroke-linecap="round" stroke-linejoin="round"/>
  <path d="M35 0c-6 8-10 18-10 35s4 27 10 35c6-8 10-18 10-35S41 8 35 0z" stroke="#3f2578" stroke-width="1.5" stroke-linecap="round" stroke-linejoin="round"/>
</svg>
