<svg preserveAspectRatio="none" width="100%" height="100%" overflow="visible" style="display: block;" viewBox="0 0 418.687 37.4844" fill="none" xmlns="http://www.w3.org/2000/svg">
<g id="layer1">
<path id="path7028" d="M256.423 0.623946L253.108 5.49963L254.005 6.47488L263.366 1.75491L262.899 0.623946H256.423ZM57.7674 31.7116C59.7173 34.3637 62.3699 36.0803 66.2703 36.0803C71.3804 36.0803 75.4371 33.2322 75.4371 27.6937C75.4371 18.3718 63.579 19.7754 63.579 13.8469C63.579 10.6092 66.0365 9.40008 69.5468 10.2191L71.9656 15.4849H74.1106V9.20503C72.1213 8.11286 69.8982 7.45013 66.8167 7.45013C62.4092 7.45013 58.157 9.82897 58.157 15.3679C58.157 24.8073 69.8588 23.442 69.8588 29.2153C69.8588 31.6723 67.9089 33.1158 64.9831 33.1158C62.6431 33.1158 60.5363 31.9455 58.4301 30.5419L57.7674 31.7116ZM200.645 31.7116C202.596 34.3637 205.248 36.0803 209.149 36.0803C214.258 36.0803 218.315 33.2322 218.315 27.6937C218.315 18.3718 206.457 19.7754 206.457 13.8469C206.457 10.6092 208.914 9.40008 212.425 10.2191L214.843 15.4849H216.989V9.20503C215 8.11286 212.776 7.45013 209.694 7.45013C205.287 7.45013 201.035 9.82897 201.035 15.3679C201.035 24.8073 212.737 23.442 212.737 29.2153C212.737 31.6723 210.787 33.1158 207.861 33.1158C205.521 33.1158 203.415 31.9455 201.308 30.5419L200.645 31.7116ZM20.9069 32.2968L17.4353 33.5447V35.6126H30.5413V33.5447L27.1474 32.2968V5.85094L30.5413 4.60252V2.5351H17.4353V4.60252L20.9069 5.85094V16.889H9.71204V5.85094L13.1055 4.60252V2.5351H0V4.60252L3.43222 5.85094V32.2968L0 33.5447V35.6126H13.1055V33.5447L9.71204 32.2968V20.3605H20.9069V32.2968ZM403.865 24.4172V32.5694L400.511 33.5447V35.6126H413.07V33.5447L409.716 32.5694V23.7933L416.386 11.1555L418.687 9.94643V7.91781H410.223V9.94643L413.265 11.1555L410.184 17.5135L408.663 20.9069H408.468L406.83 17.4741L403.397 10.9217L405.893 9.98522V7.91781H394.621V9.98522L396.727 10.9217L403.865 24.4172ZM372.894 32.2968L370.554 33.5835V35.6126H379.369V33.5835L375.898 32.2968L375.742 19.6202L375.664 15.3291L375.898 15.251L378.004 18.8395L389.004 35.8853L391.773 35.534L391.93 11.2336L394.27 9.94643V7.91781H385.455V9.94643L388.926 11.2336L389.082 21.0238L389.16 25.2362L388.965 25.3149L386.781 21.6871L377.926 7.91781H370.554V9.98522L373.05 11.1167L372.894 32.2968ZM360.257 32.5694L357.565 33.5447V35.6126H368.76V33.5447L366.108 32.5694V10.9605L368.76 9.98522V7.91781H357.565V9.98522L360.257 10.9605V32.5694ZM356.473 9.94643V7.91781H348.126V9.94643L351.286 11.1943L347.463 23.637L346.215 28.2789H346.02L344.733 23.637L340.676 10.9605L343.328 9.98522V7.91781H332.289V9.98522L334.513 10.9605L342.431 35.6902H346.41L354.328 11.1943L356.473 9.94643ZM332.679 21.7652C332.679 12.4815 326.751 7.45013 320.744 7.45013C314.698 7.45013 308.769 12.4815 308.769 21.7652C308.769 31.0484 314.698 36.0803 320.744 36.0803C326.751 36.0803 332.679 31.0484 332.679 21.7652ZM326.438 21.7652C326.438 29.488 323.864 33.4671 320.744 33.4671C317.585 33.4671 315.01 29.488 315.01 21.7652C315.01 14.0419 317.585 10.0634 320.744 10.0634C323.864 10.0634 326.438 14.0419 326.438 21.7652ZM281.231 32.2968L277.76 33.5835V35.6126H289.266V33.5835L285.015 32.2968L284.858 15.4073L284.78 11.1167L285.015 11.0381L287.121 14.6271L301.631 35.8853L304.791 35.534L304.947 5.85094L307.872 4.56319V2.5351H296.912V4.56319L301.163 5.85094L301.319 19.8541L301.397 24.0659L301.202 24.1446L299.018 20.5168L286.653 2.5351H277.76V4.60252L281.387 5.73348L281.231 32.2968ZM246.633 35.6126H267.15V27.1474H265.004L262.742 32.8819H255.175V22.8568L262.274 23.5982V19.5028L255.175 20.2829V10.6485H262.235L264.342 15.9924H266.487V7.91781H246.633V9.98522L249.324 10.9605V32.5694L246.633 33.5447V35.6126ZM223.346 32.5694L220.655 33.5447V35.6126H231.85V33.5447L229.197 32.5694V25.3925L231.304 22.9743L237.155 32.5694L235.048 33.5447V35.6126H246.087V33.5447L244.097 32.6082L235.36 18.3718L241.601 11.1943L244.331 9.94643V7.91781H235.36V9.94643L237.623 11.1943L231.772 18.3718L229.353 21.5702L229.197 21.492V10.9605L231.85 9.98522V7.91781H220.655V9.98522L223.346 10.9605V32.5694ZM184.458 20.7506V10.6485H186.291C188.943 10.6485 190.348 12.1308 190.348 15.4461C190.348 18.9564 188.593 20.7506 185.784 20.7506H184.458ZM184.458 23.4808H185.667C190.153 23.4808 189.138 37.4451 201.971 37.4844L202.361 36.3923C196.081 34.2473 196.9 23.442 190.231 22.2717V22.0772C193.936 21.1407 196.276 18.7226 196.276 15.0172C196.276 10.024 192.727 7.91781 188.085 7.91781H175.915V9.98522L178.607 10.9605V32.5694L175.915 33.5447V35.6126H187.5V33.5447L184.458 32.5306V23.4808ZM178.841 0.896586L183.795 6.2017H188.359L193.312 0.896586L192.259 0L186.252 2.45698L179.855 0L178.841 0.896586ZM163.278 0.623946L159.962 5.49963L160.859 6.47488L170.221 1.75491L169.753 0.623946H163.278ZM164.721 26.9917L166.476 32.5694L163.785 33.5447V35.6126H174.668V33.5447L172.678 32.5694L164.877 7.84022H159.962L152.161 32.3356L150.211 33.5835V35.6126H158.363V33.5835L155.165 32.3356L156.803 26.9917H164.721ZM157.583 24.261L159.494 18.0593L160.586 13.925H160.781L161.912 18.0593L163.902 24.261H157.583ZM134.804 32.8819V10.6485H136.871C141.2 10.6485 144.009 14.1976 144.009 21.4139C144.009 28.5914 141.2 32.8819 136.871 32.8819H134.804ZM138.158 35.6126C145.296 35.6126 150.25 30.2682 150.25 21.3751C150.25 12.4034 145.296 7.91781 138.158 7.91781H126.261V9.98522L128.953 10.9605V32.5694L126.261 33.5447V35.6126H138.158ZM124.116 21.7652C124.116 12.4815 118.187 7.45013 112.18 7.45013C106.134 7.45013 100.206 12.4815 100.206 21.7652C100.206 31.0484 106.134 36.0803 112.18 36.0803C118.187 36.0803 124.116 31.0484 124.116 21.7652ZM117.875 21.7652C117.875 29.488 115.3 33.4671 112.18 33.4671C109.021 33.4671 106.446 29.488 106.446 21.7652C106.446 14.0419 109.021 10.0634 112.18 10.0634C115.3 10.0634 117.875 14.0419 117.875 21.7652ZM86.3195 10.6485H88.153C90.922 10.6485 92.3261 12.2084 92.3261 15.9531C92.3261 19.6978 91.1563 21.8816 87.5679 22.6618L87.958 24.0271C95.3688 24.0271 98.4502 20.3999 98.4502 15.9143C98.4502 10.2584 94.7448 7.91781 89.8691 7.91781H77.7772V9.98522L80.4685 10.9605V32.5694L77.7772 33.5447V35.6126H89.9467V33.5447L86.3195 32.5306V10.6485ZM55.8557 21.7652C55.8557 12.4815 49.9272 7.45013 43.92 7.45013C37.874 7.45013 31.9455 12.4815 31.9455 21.7652C31.9455 31.0484 37.874 36.0803 43.92 36.0803C49.9272 36.0803 55.8557 31.0484 55.8557 21.7652ZM49.6152 21.7652C49.6152 29.488 47.0408 33.4671 43.92 33.4671C40.7609 33.4671 38.1865 29.488 38.1865 21.7652C38.1865 14.0419 40.7609 10.0634 43.92 10.0634C47.0408 10.0634 49.6152 14.0419 49.6152 21.7652Z" fill="var(--fill-0, white)"/>
</g>
</svg>
