<svg preserveAspectRatio="none" width="100%" height="100%" overflow="visible" style="display: block;" viewBox="0 0 36 36" fill="none" xmlns="http://www.w3.org/2000/svg">
<g id="lamp-on">
<path id="Vector" d="M28.815 9.54002C27.255 6.39002 24.24 4.06502 20.745 3.30002C17.085 2.49002 13.335 3.36002 10.47 5.67002C7.58996 7.96502 5.95496 11.4 5.95496 15.075C5.95496 18.96 8.27996 23.025 11.79 25.38V26.625C11.775 27.045 11.76 27.69 12.27 28.215C12.795 28.755 13.575 28.815 14.19 28.815H21.885C22.695 28.815 23.31 28.59 23.73 28.17C24.3 27.585 24.285 26.835 24.27 26.43V25.38C28.92 22.245 31.845 15.63 28.815 9.54002Z" fill="var(--fill-0, #EF8600)"/>
<path id="Vector_2" d="M22.89 33C22.8 33 22.695 32.985 22.605 32.955C19.59 32.1 16.425 32.1 13.41 32.955C12.855 33.105 12.27 32.79 12.12 32.235C11.955 31.68 12.285 31.095 12.84 30.945C16.23 29.985 19.8 29.985 23.19 30.945C23.745 31.11 24.075 31.68 23.91 32.235C23.76 32.7 23.34 33 22.89 33Z" fill="var(--fill-0, #EF8600)"/>
<g id="Vector_3" opacity="0">
</g>
</g>
</svg>
