<svg preserveAspectRatio="none" width="100%" height="100%" overflow="visible" style="display: block;" viewBox="0 0 17.9543 17.9542" fill="none" xmlns="http://www.w3.org/2000/svg">
<path id="vector" fill-rule="evenodd" clip-rule="evenodd" d="M1.91047 16.0602L3.2234 17.3732C3.68505 17.8348 4.37018 18.0657 5.05539 17.9014C7.52346 17.3098 10.6337 15.8057 13.2159 13.2236C15.5208 10.9187 16.7987 8.06473 17.4276 5.72976C17.7428 4.5597 17.9019 3.49455 17.9402 2.66086C17.9724 1.95866 17.9952 1.03234 17.4586 0.495668C16.9219 -0.0410019 15.9956 -0.0181517 15.2934 0.0140483C14.4597 0.0522883 13.3945 0.211478 12.2245 0.526618C9.88952 1.15553 7.0355 2.43347 4.73066 4.73831C2.14848 7.32053 0.644452 10.4308 0.0527919 12.8988C-0.111468 13.584 0.119422 14.2692 0.581072 14.7308L1.89398 16.0437C1.89669 16.0465 1.89942 16.0493 1.90218 16.052C1.90493 16.0548 1.9077 16.0575 1.91047 16.0602ZM6.14488 6.15252C8.13582 4.1616 10.644 3.02359 12.7446 2.4578C13.3599 2.29209 13.9314 2.17788 14.4344 2.10559L2.60933 13.9307L2.00665 13.328C2.52442 11.2001 3.85369 8.44373 6.14488 6.15252ZM4.02355 15.3449L15.8487 3.51977C15.7764 4.0228 15.6621 4.59436 15.4964 5.20962C14.9306 7.31023 13.7926 9.81843 11.8017 11.8093C9.51052 14.1005 6.75409 15.4298 4.62625 15.9476L4.02355 15.3449Z" fill="var(--fill-0, #EF8600)"/>
</svg>
