<svg preserveAspectRatio="none" width="100%" height="100%" overflow="visible" style="display: block;" viewBox="0 0 36 36" fill="none" xmlns="http://www.w3.org/2000/svg">
<g id="global-edit">
<path id="Vector" opacity="0" d="M0 36L36 36L36 0L0 0L0 36Z" fill="var(--fill-0, #EF8600)"/>
<path id="Vector_2" d="M28.0951 22.0049L21.8701 28.2299C21.6301 28.4699 21.4051 28.9349 21.3451 29.2649L21.0001 31.6499C20.8801 32.5049 21.4801 33.1199 22.3351 32.9849L24.7201 32.6399C25.0501 32.5949 25.5151 32.3549 25.7551 32.1149L31.9801 25.8899C33.0451 24.8249 33.5551 23.5649 31.9801 21.9899C30.4201 20.4299 29.1751 20.9249 28.0951 22.0049Z" fill="var(--fill-0, #EF8600)"/>
<path id="Vector_3" d="M27.21 22.89C27.735 24.78 29.22 26.25 31.11 26.79Z" fill="var(--fill-0, #EF8600)"/>
<path id="Vector_4" d="M3.04501 21.945C3.04501 21.99 3.01501 22.05 3.01501 22.095C4.39501 24.855 6.64501 27.12 9.40501 28.485C9.45001 28.485 9.51001 28.455 9.55501 28.455C9.04501 26.715 8.65501 24.93 8.37001 23.145C6.57001 22.845 4.78501 22.455 3.04501 21.945Z" fill="var(--fill-0, #EF8600)"/>
<path id="Vector_5" d="M28.6049 9.64491C27.1949 6.68991 24.8099 4.30491 21.8699 2.90991C22.4099 4.69491 22.8599 6.52491 23.1599 8.35491C24.9899 8.65491 26.8199 9.08991 28.6049 9.64491Z" fill="var(--fill-0, #EF8600)"/>
<path id="Vector_6" d="M2.89508 9.64503C4.69508 9.10503 6.52508 8.65503 8.35508 8.35503C8.65508 6.57003 9.03008 4.80003 9.54008 3.06003C9.49508 3.06003 9.43508 3.03003 9.39008 3.03003C6.57008 4.42503 4.27508 6.78003 2.89508 9.64503Z" fill="var(--fill-0, #EF8600)"/>
<path id="Vector_7" d="M20.7301 8.04C20.3701 6.09 19.9201 4.14 19.2751 2.25C19.2451 2.145 19.2451 2.055 19.2301 1.935C18.1201 1.665 16.9501 1.5 15.7501 1.5C14.5351 1.5 13.3801 1.665 12.2551 1.95C12.2401 2.055 12.2551 2.145 12.2251 2.265C11.5951 4.155 11.1301 6.09 10.7701 8.04C14.0851 7.68 17.4151 7.68 20.7301 8.04Z" fill="var(--fill-0, #EF8600)"/>
<path id="Vector_8" d="M8.04 10.7701C6.075 11.1301 4.155 11.5951 2.25 12.2251C2.145 12.2551 2.055 12.2551 1.95 12.2701C1.665 13.3801 1.5 14.5501 1.5 15.7501C1.5 16.9651 1.665 18.1201 1.95 19.2451C2.055 19.2601 2.145 19.2451 2.265 19.2751C4.155 19.9051 6.09 20.3701 8.055 20.7301C7.68 17.4151 7.68 14.0851 8.04 10.7701Z" fill="var(--fill-0, #EF8600)"/>
<path id="Vector_9" d="M29.55 12.2701C29.445 12.2701 29.355 12.2551 29.235 12.2251C27.345 11.5951 25.395 11.1301 23.445 10.7701C23.82 14.0851 23.82 17.4151 23.445 20.7151C25.395 20.3551 27.345 19.9051 29.235 19.2601C29.34 19.2301 29.43 19.2451 29.55 19.2301C29.82 18.1051 30 16.9501 30 15.7351C30 14.5501 29.835 13.3951 29.55 12.2701Z" fill="var(--fill-0, #EF8600)"/>
<path id="Vector_10" d="M10.7701 23.46C11.1301 25.425 11.5801 27.36 12.2251 29.25C12.2551 29.355 12.2401 29.445 12.2551 29.565C13.3801 29.835 14.5351 30 15.7501 30C16.9501 30 18.1201 29.835 19.2301 29.55C19.2451 29.445 19.2451 29.355 19.2751 29.235C19.9051 27.345 20.3701 25.41 20.7301 23.445C19.0801 23.625 17.4151 23.76 15.7501 23.76C14.0851 23.76 12.4201 23.64 10.7701 23.46Z" fill="var(--fill-0, #EF8600)"/>
<path id="Vector_11" d="M10.425 10.425C9.97496 13.965 9.97496 17.535 10.425 21.09C13.965 21.54 17.535 21.54 21.09 21.09C21.54 17.55 21.54 13.98 21.09 10.425C17.535 9.97496 13.965 9.97496 10.425 10.425Z" fill="var(--fill-0, #EF8600)"/>
</g>
</svg>
