<svg preserveAspectRatio="none" width="100%" height="100%" overflow="visible" style="display: block;" viewBox="0 0 18 20.1663" fill="none" xmlns="http://www.w3.org/2000/svg">
<path id="vector" d="M9 0C13.9706 0 18 4.02944 18 9C18 12.0738 16.3241 14.5892 14.5584 16.3945C13.5897 17.3849 12.5597 18.1973 11.6817 18.8113L11.2564 19.1017C11.1879 19.1473 11.1208 19.1915 11.0551 19.2343L10.6789 19.474L10.3429 19.6791L9.9271 19.921C9.3479 20.2481 8.6521 20.2481 8.0729 19.921L7.65713 19.6791L7.13766 19.3584C7.07492 19.3184 7.01063 19.2771 6.94491 19.2343L6.53449 18.9607C5.61244 18.3315 4.49106 17.4674 3.44162 16.3945C1.6759 14.5892 0 12.0738 0 9C0 4.02944 4.02944 0 9 0ZM9 6C7.3431 6 6 7.34315 6 9C6 10.6569 7.3431 12 9 12C10.6569 12 12 10.6569 12 9C12 7.34315 10.6569 6 9 6Z" fill="var(--fill-0, #EF8600)"/>
</svg>
