<svg preserveAspectRatio="none" width="100%" height="100%" overflow="visible" style="display: block;" viewBox="0 0 73.7965 73.7966" fill="none" xmlns="http://www.w3.org/2000/svg">
<path id="vector" d="M67.454 0.287947C70.5094 0.898988 72.8973 3.28715 73.5086 6.34241C74.3952 10.7755 73.2098 15.3709 70.2894 18.8221L58.8236 32.3727L66.9265 62.0839C67.4186 63.8872 66.9065 65.8156 65.5848 67.1372L60.1586 72.5635C58.1815 74.5406 54.8619 74.0756 53.504 71.6314L41.0327 49.1831L27.4577 58.581V61.8589C27.4577 63.2402 26.909 64.5652 25.9323 65.5418L18.9193 72.5547C16.7072 74.7668 12.9405 73.8777 11.9512 70.9097L9.68508 64.1114L2.88662 61.8452C-0.0812501 60.856 -0.970417 57.0893 1.24167 54.8772L8.25462 47.8643C9.23137 46.8872 10.5561 46.3385 11.9375 46.3385H15.2154L24.6135 32.7635L2.16508 20.2923C-0.278959 18.9345 -0.744001 15.6149 1.23308 13.6378L6.65912 8.21174C7.98075 6.89011 9.90917 6.37799 11.7124 6.86978L41.4236 14.9729L54.9744 3.50686C58.4257 0.586613 63.0211 -0.598678 67.454 0.287947Z" fill="var(--fill-0, #3F2578)"/>
</svg>
