<svg preserveAspectRatio="none" width="100%" height="100%" overflow="visible" style="display: block;" viewBox="0 0 14.7279 14.7279" fill="none" xmlns="http://www.w3.org/2000/svg">
<path id="vector" fill-rule="evenodd" clip-rule="evenodd" d="M7.36401 8.77817L13.0208 14.4351C13.4113 14.8256 14.0445 14.8256 14.435 14.4351C14.8255 14.0445 14.8255 13.4114 14.435 13.0208L8.77821 7.36397L14.435 1.70712C14.8255 1.3166 14.8255 0.68343 14.435 0.29291C14.0445 -0.09762 13.4113 -0.09762 13.0208 0.29291L7.36401 5.94977L1.7071 0.29289C1.31658 -0.09763 0.68341 -0.09763 0.29289 0.29289C-0.09763 0.68342 -0.09763 1.31658 0.29289 1.70711L5.94971 7.36397L0.29289 13.0209C-0.09763 13.4114 -0.09763 14.0445 0.29289 14.4351C0.68341 14.8256 1.31658 14.8256 1.7071 14.4351L7.36401 8.77817Z" fill="var(--fill-0, #94A3B8)"/>
</svg>
