<svg preserveAspectRatio="none" width="100%" height="100%" overflow="visible" style="display: block;" viewBox="0 0 83.3342 70.8333" fill="none" xmlns="http://www.w3.org/2000/svg">
<path id="vector" fill-rule="evenodd" clip-rule="evenodd" d="M57.3496 0C62.0842 0 66.4125 2.67504 68.53 6.90983L74.3025 18.455C75.3192 18.0362 76.3221 17.5886 77.305 17.1056C79.3629 16.0778 81.8646 16.9121 82.8933 18.9698C83.9225 21.0281 83.0883 23.5309 81.03 24.56C80.0254 25.0075 79.0187 25.4429 78.0071 25.8637L82.0137 33.8771C82.8817 35.6129 83.3333 37.5267 83.3333 39.4671V50C83.3333 53.7021 81.7237 57.0283 79.1667 59.3171V64.5833C79.1667 68.035 76.3683 70.8333 72.9167 70.8333C69.465 70.8333 66.6667 68.035 66.6667 64.5833V62.5H16.6667V64.5833C16.6667 68.035 13.8685 70.8333 10.4167 70.8333C6.96487 70.8333 4.16667 68.035 4.16667 64.5833V59.3171C1.60938 57.0283 0 53.7021 0 50V39.4671C0 37.5267 0.451833 35.6129 1.31967 33.8771L5.29321 25.93C4.28704 25.5037 3.29262 25.0508 2.31367 24.5652C0.277542 23.5499 -0.578875 21.0075 0.439917 18.9698C1.46875 16.9121 3.9705 16.0777 6.02846 17.1056C7.01304 17.5897 8.01538 18.0372 9.03042 18.4556L14.8033 6.90983C16.9207 2.67504 21.249 0 25.9836 0H57.3496ZM22.9167 37.5C19.4649 37.5 16.6667 40.2983 16.6667 43.75C16.6667 47.2017 19.4649 50 22.9167 50C26.3685 50 29.1667 47.2017 29.1667 43.75C29.1667 40.2983 26.3685 37.5 22.9167 37.5ZM60.4167 37.5C56.965 37.5 54.1667 40.2983 54.1667 43.75C54.1667 47.2017 56.965 50 60.4167 50C63.8683 50 66.6667 47.2017 66.6667 43.75C66.6667 40.2983 63.8683 37.5 60.4167 37.5ZM57.3496 8.33333H25.9837C24.5808 8.33333 23.285 9.03786 22.5186 10.1859L22.2569 10.6366L16.9693 21.2118C23.4165 23.1456 32.1045 24.9999 41.6667 24.9999C50.5917 24.9999 58.7548 23.3847 65.0453 21.597L66.3642 21.2118L61.0767 10.6366C60.4493 9.38185 59.2395 8.5379 57.8699 8.36585L57.3496 8.33333Z" fill="var(--fill-0, #3F2578)"/>
</svg>
