<svg preserveAspectRatio="none" width="100%" height="100%" overflow="visible" style="display: block;" viewBox="0 0 36 36" fill="none" xmlns="http://www.w3.org/2000/svg">
<g id="call-slash">
<path id="Vector" d="M33.0001 27.4951C33.0001 28.0351 32.8801 28.5901 32.6251 29.1301C32.3701 29.6701 32.0401 30.1801 31.6051 30.6601C30.8701 31.4701 30.0601 32.0551 29.1451 32.4301C28.2451 32.8051 27.2551 33.0001 26.2051 33.0001C24.6751 33.0001 23.0401 32.6401 21.3151 31.9051C19.5901 31.1701 17.8501 30.1801 16.1401 28.9351C15.2701 28.2901 14.4151 27.6301 13.5901 26.9101L18.4801 22.0201C18.4951 22.0201 18.4951 22.0201 18.5101 22.0351C19.2901 22.6951 19.9351 23.1451 20.4451 23.4151C20.5201 23.4451 20.6101 23.4901 20.7151 23.5351C20.8351 23.5801 20.9551 23.5951 21.0901 23.5951C21.3451 23.5951 21.5401 23.5051 21.7051 23.3401L22.8451 22.2151C23.2201 21.8401 23.5801 21.5551 23.9251 21.3751C24.2701 21.1651 24.6151 21.0601 24.9901 21.0601C25.2751 21.0601 25.5751 21.1201 25.9051 21.2551C26.2351 21.3901 26.5801 21.5851 26.9551 21.8401L31.9351 25.3651C32.3251 25.6351 32.5951 25.9501 32.7601 26.3251C32.9101 26.7001 33.0001 27.0751 33.0001 27.4951Z" fill="var(--fill-0, #EF8600)"/>
<path id="Vector_2" d="M16.14 19.86L11.25 24.75C11.235 24.75 11.235 24.75 11.22 24.735C9.675 23.175 8.28 21.54 7.02 19.83C5.805 18.15 4.83 16.455 4.11 14.79C4.095 14.76 4.095 14.745 4.08 14.715C3.36 13.005 3 11.37 3 9.81C3 8.79 3.18 7.815 3.54 6.915C3.84 6.15 4.29 5.43 4.905 4.785C5.01 4.665 5.13 4.53 5.265 4.41C5.505 4.17 5.745 3.96 6 3.795C6.015 3.795 6.015 3.795 6.015 3.795C6.765 3.255 7.56 3 8.4 3C8.82 3 9.24 3.09 9.615 3.27C9.975 3.435 10.29 3.675 10.545 4.02C10.575 4.05 10.59 4.08 10.62 4.11L14.1 9.015C14.37 9.39 14.565 9.735 14.7 10.065C14.835 10.38 14.91 10.695 14.91 10.98C14.91 11.34 14.805 11.7 14.595 12.045C14.4 12.39 14.115 12.75 13.755 13.11L12.615 14.295C12.45 14.46 12.375 14.655 12.375 14.895C12.375 15.015 12.39 15.12 12.42 15.24C12.465 15.36 12.51 15.45 12.54 15.54C12.81 16.035 13.275 16.68 13.935 17.46C14.61 18.24 15.33 19.035 16.11 19.83C16.125 19.845 16.125 19.845 16.14 19.86Z" fill="var(--fill-0, #EF8600)"/>
<path id="Vector_3" d="M32.655 3.34501C32.205 2.89501 31.47 2.89501 31.02 3.34501L3.34501 31.035C2.89501 31.485 2.89501 32.22 3.34501 32.67C3.57001 32.88 3.85501 33 4.15501 33C4.45501 33 4.74001 32.88 4.96501 32.655L32.655 4.96501C33.12 4.51501 33.12 3.79501 32.655 3.34501Z" fill="var(--fill-0, #EF8600)"/>
<g id="Vector_4" opacity="0">
</g>
</g>
</svg>
