<svg preserveAspectRatio="none" width="100%" height="100%" overflow="visible" style="display: block;" viewBox="0 0 19.1213 19.1213" fill="none" xmlns="http://www.w3.org/2000/svg">
<path id="vector" fill-rule="evenodd" clip-rule="evenodd" d="M8.5 2C4.91015 2 2 4.91015 2 8.5C2 12.0899 4.91015 15 8.5 15C12.0899 15 15 12.0899 15 8.5C15 4.91015 12.0899 2 8.5 2ZM0 8.5C0 3.80558 3.80558 0 8.5 0C13.1944 0 17 3.80558 17 8.5C17 10.4869 16.3183 12.3145 15.176 13.7618L18.8284 17.4142C19.2189 17.8047 19.2189 18.4379 18.8284 18.8284C18.4379 19.2189 17.8047 19.2189 17.4142 18.8284L13.7618 15.176C12.3145 16.3183 10.4869 17 8.5 17C3.80558 17 0 13.1944 0 8.5ZM7.5 5C7.5 4.44772 7.94772 4 8.5 4C10.9853 4 13 6.01472 13 8.5C13 9.0523 12.5523 9.5 12 9.5C11.4477 9.5 11 9.0523 11 8.5C11 7.11929 9.8807 6 8.5 6C7.94772 6 7.5 5.55228 7.5 5Z" fill="var(--fill-0, #E2E9F0)"/>
</svg>
